<svg width="174" height="152" viewBox="0 0 174 152" fill="none" xmlns="http://www.w3.org/2000/svg">
<path d="M113.872 113.872C134.835 92.9086 134.835 58.9205 113.872 37.9573C92.9086 16.9941 58.9205 16.9941 37.9573 37.9573C16.994 58.9205 16.994 92.9086 37.9573 113.872C58.9205 134.835 92.9086 134.835 113.872 113.872Z" fill="url(#paint0_radial_1011_20522)"/>
<path d="M52.6705 92.8678C42.9698 57.9386 59.5522 39.2077 83.7195 28.4522C77.5865 28.3285 71.3233 29.266 65.1839 31.3754C42.8005 39.084 28.7898 60.1131 28.959 82.542C28.959 110.609 57.1368 108.955 52.6705 92.8613V92.8678Z" fill="url(#paint1_radial_1011_20522)" fill-opacity="0.29" style="mix-blend-mode:screen"/>
<path d="M24.2129 78.3883C24.2129 48.7392 48.2434 24.7086 77.8925 24.7086C94.3057 24.7086 109 32.0786 118.844 43.687C109.052 30.6593 93.4658 22.2346 75.9133 22.2346C46.2642 22.2346 22.2336 46.2651 22.2336 75.9143C22.2336 89.1438 27.0254 101.253 34.9618 110.616C28.2169 101.638 24.2129 90.4849 24.2129 78.3883Z" fill="url(#paint2_linear_1011_20522)"/>
<path d="M126.598 60.2693C126.761 62.0337 127.015 63.7329 127.015 65.5363C127.015 96.8196 101.656 122.185 70.3662 122.185C56.1537 122.185 43.1586 116.95 33.2169 108.298C43.0544 120.531 58.1459 128.37 75.0669 128.37C104.716 128.37 128.747 104.339 128.747 74.6902C128.747 69.664 127.887 64.8853 126.598 60.2693Z" fill="#3A1111"/>
<path d="M92.1376 36.4016C92.1376 36.4016 101.194 51.402 114.742 63.7916C114.742 63.7916 120.061 68.1797 123.258 65.608C128.31 60.9465 112.21 41.5905 112.21 41.5905L92.1311 36.4016H92.1376Z" fill="#3A1111"/>
<path d="M118.147 38.225L109.332 31.3694L98.9087 45.94C98.9543 45.9791 98.9998 46.0117 99.0454 46.0507C105.296 50.9076 112.399 52.2228 114.918 48.987C114.957 48.9349 118.147 38.2315 118.147 38.2315V38.225Z" fill="url(#paint3_linear_1011_20522)"/>
<path d="M109.755 31.6947L100.504 24.5005C100.504 24.5005 92.3395 31.3366 92.3004 31.3822C89.7808 34.6244 92.8017 41.1871 99.0519 46.044C99.1495 46.1156 99.2407 46.1872 99.3383 46.2588L109.762 31.6947H109.755Z" fill="url(#paint4_linear_1011_20522)"/>
<path d="M118.037 38.3681C115.712 41.3434 109.892 40.6729 105.022 36.8707C100.159 33.075 98.0948 27.5801 100.419 24.6113C102.743 21.6359 108.564 22.3065 113.434 26.1087C118.297 29.9044 120.361 35.3993 118.037 38.3681Z" fill="url(#paint5_linear_1011_20522)"/>
<path d="M118.128 38.2575C115.856 41.1677 110.068 40.445 105.204 36.6494C100.341 32.8537 98.2381 27.4108 100.51 24.5006C102.782 21.5904 108.57 22.3131 113.434 26.1152C118.297 29.9109 120.4 35.3537 118.128 38.264V38.2575Z" fill="url(#paint6_linear_1011_20522)"/>
<path d="M114.664 34.4748C113.492 35.9788 110.393 35.5165 107.743 33.4461C105.094 31.3758 103.896 28.4786 105.068 26.9811C106.24 25.4772 109.319 25.972 111.988 28.0098C115.029 30.3276 115.836 32.9774 114.664 34.4748Z" fill="url(#paint7_linear_1011_20522)"/>
<path d="M114.456 34.2925C113.284 35.7964 110.393 35.5165 107.743 33.4461C105.094 31.3757 103.896 28.4785 105.068 26.9811C106.24 25.4771 109.228 26.1087 111.878 28.179C114.528 30.2494 115.628 32.7885 114.456 34.2925Z" fill="url(#paint8_radial_1011_20522)"/>
<path d="M148.988 74.3386C149.359 73.6224 149.782 72.6068 149.554 71.3958C149.398 70.4909 149.144 69.4231 149.659 68.1015C149.886 67.5416 150.004 67.216 149.411 67.9322C148.708 68.7916 148.063 69.6705 147.992 69.7747C146.423 71.9883 147.119 73.4987 147.523 74.6772C147.64 74.9897 147.699 75.2957 147.725 75.5886C147.79 76.3308 147.816 76.6043 148.226 75.7579C148.597 75.0222 148.988 74.3386 148.988 74.3386Z" fill="url(#paint9_linear_1011_20522)"/>
<path d="M149.216 71.7276C149.418 73.1273 148.916 74.3513 148.493 75.2303L148.988 74.3383C149.359 73.6222 149.782 72.6065 149.554 71.3955C149.483 70.9919 149.398 70.5557 149.365 70.0869C149.222 70.751 149.164 71.3369 149.216 71.7276Z" fill="#EBD6BB"/>
<path d="M148.057 76.0769C148.031 75.9597 148.018 75.7839 147.998 75.5626C147.979 75.2696 147.914 74.9701 147.803 74.6511C147.406 73.4727 146.716 71.9622 148.285 69.7681C148.356 69.664 148.994 68.7916 149.704 67.9387C149.717 67.9257 149.724 67.9191 149.737 67.9061C149.906 67.4764 149.925 67.3137 149.411 67.9322C148.708 68.7916 148.063 69.6705 147.992 69.7747C146.423 71.9882 147.119 73.4987 147.523 74.6771C147.64 74.9896 147.699 75.2956 147.725 75.5886C147.777 76.2136 147.816 76.4936 148.063 76.0704L148.057 76.0769Z" fill="#99733F"/>
<path d="M147.399 77.5158C147.66 76.7996 147.933 75.797 147.523 74.6837C147.23 73.8503 146.82 72.8737 147.126 71.5781C147.263 71.0312 147.328 70.7187 146.859 71.4414C146.299 72.3138 145.798 73.2058 145.746 73.3099C144.535 75.5496 145.433 76.9168 146.006 77.991C146.169 78.2775 146.273 78.564 146.338 78.8374C146.507 79.534 146.572 79.7945 146.859 78.9481C147.119 78.2124 147.406 77.5223 147.406 77.5223L147.399 77.5158Z" fill="url(#paint10_linear_1011_20522)"/>
<path d="M147.237 75.0287C147.64 76.3243 147.328 77.5353 147.035 78.4142C147.035 78.4142 147.393 77.5222 147.399 77.5157C147.66 76.7996 147.933 75.7969 147.523 74.6836C147.393 74.3125 147.243 73.9089 147.139 73.4727C147.1 74.1107 147.132 74.6641 147.237 75.0287Z" fill="#EBD6BB"/>
<path d="M146.729 79.2608C146.69 79.1501 146.644 78.9874 146.599 78.779C146.533 78.5056 146.429 78.2256 146.273 77.9392C145.707 76.8649 144.808 75.4977 146.026 73.2776C146.084 73.1734 146.579 72.288 147.145 71.4221C147.152 71.4091 147.158 71.4025 147.171 71.3895C147.269 70.9729 147.269 70.8166 146.859 71.4481C146.299 72.3205 145.798 73.2125 145.746 73.3167C144.535 75.5563 145.433 76.9235 146.006 77.9978C146.169 78.2842 146.273 78.5707 146.338 78.8441C146.481 79.4301 146.553 79.697 146.742 79.2673L146.729 79.2608Z" fill="#99733F"/>
<path d="M146.286 80.6994C146.449 79.9832 146.566 79.0066 146 77.991C145.589 77.2292 145.042 76.3438 145.153 75.0938C145.205 74.5664 145.225 74.2604 144.867 74.9896C144.443 75.8685 144.079 76.767 144.04 76.8712C143.167 79.1173 144.248 80.3283 144.958 81.2984C145.153 81.5588 145.296 81.8127 145.401 82.0731C145.667 82.7242 145.765 82.9651 145.934 82.1187C146.091 81.383 146.279 80.6994 146.279 80.6994H146.286Z" fill="url(#paint11_linear_1011_20522)"/>
<path d="M145.772 78.3489C146.358 79.5403 146.221 80.7253 146.052 81.5977C146.052 81.5977 146.28 80.7057 146.286 80.7057C146.449 79.9896 146.566 79.013 146 77.9973C145.817 77.6588 145.609 77.2942 145.446 76.884C145.498 77.496 145.609 78.0169 145.772 78.3489Z" fill="#EBD6BB"/>
<path d="M145.863 82.4377C145.804 82.3335 145.746 82.1837 145.667 81.9884C145.57 81.7345 145.427 81.4741 145.231 81.2202C144.522 80.2566 143.447 79.0457 144.326 76.8125C144.365 76.7084 144.73 75.8164 145.16 74.944C145.16 74.931 145.173 74.9245 145.179 74.9114C145.218 74.5078 145.192 74.358 144.88 74.9961C144.457 75.875 144.092 76.7735 144.053 76.8776C143.18 79.1238 144.261 80.3347 144.971 81.3048C145.166 81.5652 145.309 81.8192 145.414 82.0796C145.635 82.6265 145.746 82.8739 145.869 82.4442L145.863 82.4377Z" fill="#99733F"/>
<path d="M145.616 83.8701C145.681 83.167 145.668 82.2099 144.965 81.305C144.457 80.6213 143.786 79.8336 143.721 78.6291C143.695 78.1213 143.675 77.8283 143.428 78.564C143.129 79.4429 142.901 80.3349 142.875 80.4456C142.321 82.6852 143.552 83.7399 144.392 84.5928C144.626 84.8207 144.802 85.055 144.932 85.2894C145.277 85.8884 145.407 86.1098 145.466 85.2764C145.524 84.5537 145.622 83.8701 145.616 83.8701Z" fill="url(#paint12_linear_1011_20522)"/>
<path d="M144.782 81.6695C145.531 82.7437 145.55 83.9026 145.498 84.7555L145.609 83.87C145.674 83.1669 145.661 82.2098 144.958 81.3049C144.73 80.9989 144.476 80.6733 144.255 80.3022C144.391 80.8817 144.574 81.37 144.782 81.6695Z" fill="#EBD6BB"/>
<path d="M145.427 85.5891C145.355 85.498 145.277 85.3548 145.173 85.179C145.043 84.9446 144.867 84.7102 144.632 84.4823C143.799 83.6295 142.569 82.5747 143.135 80.3546C143.161 80.2505 143.395 79.365 143.695 78.4861C143.695 78.4731 143.701 78.4666 143.708 78.4536C143.688 78.0694 143.636 77.9262 143.421 78.5642C143.122 79.4432 142.894 80.3351 142.868 80.4458C142.315 82.6854 143.545 83.7401 144.385 84.593C144.619 84.8209 144.795 85.0553 144.925 85.2897C145.218 85.7975 145.362 86.0188 145.427 85.5891Z" fill="#99733F"/>
<path d="M145.362 87.0017C145.336 86.3116 145.199 85.3936 144.378 84.5928C143.78 83.9873 143.018 83.3037 142.783 82.1578C142.692 81.6695 142.627 81.3961 142.484 82.1253C142.308 82.9977 142.197 83.8896 142.191 83.9938C141.937 86.2139 143.291 87.1059 144.235 87.8416C144.496 88.0369 144.698 88.2452 144.86 88.4601C145.283 89.007 145.44 89.2088 145.394 88.3885C145.362 87.6788 145.368 87.0082 145.368 87.0017H145.362Z" fill="url(#paint13_linear_1011_20522)"/>
<path d="M144.255 84.964C145.14 85.921 145.309 87.0343 145.368 87.8742V87.0018C145.342 86.3117 145.205 85.3937 144.385 84.5929C144.118 84.3259 143.825 84.0395 143.552 83.7009C143.766 84.2413 144.014 84.6905 144.255 84.964Z" fill="#EBD6BB"/>
<path d="M145.394 88.6947C145.316 88.61 145.212 88.4863 145.088 88.3236C144.925 88.1087 144.724 87.9004 144.463 87.7051C143.526 86.9694 142.171 86.0774 142.438 83.8768C142.451 83.7727 142.562 82.8938 142.744 82.0213C142.744 82.0083 142.744 82.0018 142.751 81.9888C142.679 81.6242 142.608 81.494 142.484 82.1255C142.308 82.9979 142.197 83.8899 142.191 83.994C141.937 86.2141 143.291 87.1061 144.235 87.8418C144.496 88.0371 144.698 88.2454 144.86 88.4603C145.212 88.9225 145.381 89.1244 145.394 88.7012V88.6947Z" fill="#99733F"/>
<path d="M145.511 90.0748C145.401 89.4042 145.147 88.5253 144.235 87.8352C143.565 87.3144 142.718 86.7284 142.341 85.6476C142.184 85.1919 142.087 84.9315 142.035 85.6476C141.976 86.5135 141.976 87.386 141.983 87.4901C142.015 89.6712 143.467 90.4004 144.496 91.0124C144.776 91.1751 145.003 91.3574 145.192 91.5527C145.674 92.041 145.856 92.2233 145.713 91.429C145.596 90.7389 145.518 90.0813 145.518 90.0813L145.511 90.0748Z" fill="url(#paint14_linear_1011_20522)"/>
<path d="M144.157 88.213C145.153 89.0463 145.459 90.1141 145.622 90.9344L145.511 90.0815C145.401 89.4109 145.147 88.532 144.235 87.8419C143.936 87.6075 143.604 87.3666 143.298 87.0671C143.578 87.5685 143.884 87.9786 144.157 88.213Z" fill="#EBD6BB"/>
<path d="M145.752 91.7287C145.661 91.657 145.55 91.5464 145.407 91.3966C145.218 91.2013 144.99 91.0255 144.711 90.8628C143.688 90.2508 142.236 89.5216 142.217 87.3535C142.217 87.2494 142.217 86.3835 142.282 85.5241C142.282 85.5111 142.282 85.5045 142.282 85.4915C142.158 85.1465 142.08 85.0228 142.035 85.6543C141.976 86.5202 141.976 87.3926 141.983 87.4968C142.015 89.6778 143.467 90.407 144.496 91.019C144.776 91.1818 145.003 91.3641 145.192 91.5594C145.596 91.9695 145.791 92.1518 145.752 91.7352V91.7287Z" fill="#99733F"/>
<path d="M146.032 93.076C145.843 92.4314 145.485 91.5916 144.496 91.0186C143.766 90.5824 142.855 90.1006 142.341 89.0915C142.126 88.6618 142.002 88.4209 142.041 89.1241C142.093 89.9704 142.197 90.8233 142.217 90.9275C142.516 93.0564 144.04 93.6164 145.134 94.1112C145.433 94.2414 145.68 94.3976 145.889 94.5669C146.429 94.9966 146.625 95.1528 146.39 94.3846C146.188 93.714 146.039 93.076 146.039 93.076H146.032Z" fill="url(#paint15_linear_1011_20522)"/>
<path d="M144.457 91.3961C145.55 92.0992 145.98 93.1214 146.234 93.9027L146.026 93.0758C145.837 92.4313 145.479 91.5914 144.489 91.0185C144.164 90.8232 143.806 90.6213 143.46 90.3674C143.806 90.8232 144.151 91.1943 144.457 91.3961Z" fill="#EBD6BB"/>
<path d="M146.462 94.671C146.364 94.6124 146.24 94.5082 146.078 94.3845C145.869 94.2153 145.622 94.059 145.329 93.9353C144.242 93.447 142.718 92.8871 142.432 90.7647C142.419 90.667 142.315 89.8206 142.269 88.9743C142.269 88.9612 142.269 88.9547 142.269 88.9417C142.106 88.6162 142.009 88.512 142.041 89.124C142.093 89.9704 142.197 90.8233 142.217 90.9274C142.516 93.0564 144.04 93.6163 145.134 94.1111C145.433 94.2413 145.681 94.3976 145.889 94.5668C146.338 94.9314 146.553 95.0877 146.462 94.6775V94.671Z" fill="#99733F"/>
<path d="M108.167 28.4002C107.431 28.9536 106.754 29.5266 106.754 29.5266C106.331 29.9042 105.855 30.4381 105.549 31.1021C105.549 31.1021 105.556 31.1086 105.562 31.1152C106.038 31.8964 106.656 32.5019 107.184 32.9707C107.236 33.0032 107.353 33.1204 107.366 33.1334C108.102 31.9029 108.102 30.7896 108.238 29.7544C108.277 29.4029 108.382 29.0773 108.518 28.7909C108.87 28.0552 109.026 27.7622 108.173 28.3937L108.167 28.4002Z" fill="url(#paint16_linear_1011_20522)"/>
<path d="M105.562 31.1216C105.628 31.2518 105.725 31.369 105.803 31.4862C106.129 30.3208 106.936 29.3898 107.646 28.8103C107.646 28.8038 106.754 29.52 106.754 29.5265C106.331 29.9041 105.855 30.438 105.549 31.1021C105.549 31.1021 105.556 31.1086 105.562 31.1151V31.1216Z" fill="#EBD6BB"/>
<path d="M108.492 28.1724C108.447 28.3026 108.362 28.4784 108.258 28.6998C108.121 28.9927 108.023 29.3183 107.978 29.6698C107.841 30.6725 107.848 31.7793 107.177 32.9772C107.236 33.0488 107.314 33.1139 107.359 33.14C108.049 31.9355 108.095 30.7701 108.232 29.761C108.271 29.4094 108.375 29.0839 108.512 28.7974C108.805 28.1789 108.961 27.8859 108.492 28.1724Z" fill="#99733F"/>
<path d="M111.422 26.2715C110.66 26.7012 109.957 27.1634 109.964 27.1634C109.26 27.6517 108.395 28.5046 108.245 29.7546C108.121 30.6856 108.095 31.7338 107.529 32.8341C107.464 32.9643 107.405 33.049 107.366 33.1336C107.385 33.1466 107.437 33.2052 107.464 33.2117C107.49 33.2248 107.509 33.2443 107.529 33.2638C107.587 33.2183 107.659 33.1532 107.756 33.062C108.44 32.437 109.143 31.8641 109.228 31.799C110.973 30.4187 111.051 28.9017 111.35 27.6061C111.422 27.2676 111.552 26.9681 111.708 26.7012C112.119 26.0306 112.294 25.7702 111.415 26.2585L111.422 26.2715Z" fill="url(#paint17_linear_1011_20522)"/>
<path d="M108.648 29.5593C108.915 28.14 110.009 27.1504 110.882 26.597C110.882 26.5905 109.957 27.1569 109.957 27.1634C109.254 27.6517 108.388 28.5046 108.238 29.7546C108.18 30.1648 108.147 30.614 108.082 31.0697C108.349 30.4773 108.564 29.9499 108.648 29.5528V29.5593Z" fill="#EBD6BB"/>
<path d="M111.754 26.0955C111.695 26.2127 111.598 26.3755 111.474 26.5773C111.311 26.8442 111.188 27.1437 111.109 27.4888C110.803 28.7909 110.732 30.3144 108.974 31.7141C108.889 31.7857 108.18 32.3652 107.49 33.0032C107.477 33.0162 107.47 33.0162 107.464 33.0293C107.438 33.0879 107.418 33.0813 107.398 33.1269C107.372 33.1139 107.503 33.2571 107.529 33.2767C107.587 33.2311 107.659 33.1725 107.763 33.0748C108.447 32.4498 109.15 31.8769 109.234 31.8118C110.979 30.4315 111.057 28.9146 111.357 27.619C111.428 27.2804 111.559 26.9809 111.715 26.714C112.06 26.1476 112.236 25.8807 111.754 26.0955Z" fill="#99733F"/>
<path d="M113.258 25.3275C112.535 25.7051 111.617 26.4148 111.357 27.6192C111.149 28.5177 111.038 29.5594 110.4 30.549C110.126 30.9722 109.996 31.2131 110.576 30.7899C111.285 30.2821 112.015 29.8263 112.099 29.7742C113.903 28.687 114.13 27.2026 114.554 25.9721C114.658 25.6465 114.814 25.3731 114.99 25.1322C115.452 24.5267 115.654 24.2989 114.749 24.6569C113.968 24.976 113.252 25.321 113.252 25.3275H113.258Z" fill="url(#paint18_linear_1011_20522)"/>
<path d="M111.767 27.4825C112.164 26.1283 113.31 25.321 114.202 24.8978C114.202 24.8913 113.258 25.3145 113.258 25.3275C112.535 25.7051 111.617 26.4147 111.357 27.6192C111.266 28.0163 111.188 28.446 111.077 28.8822C111.389 28.3484 111.65 27.8536 111.761 27.4825H111.767Z" fill="#EBD6BB"/>
<path d="M115.094 24.5333C115.022 24.6439 114.912 24.7872 114.775 24.9695C114.593 25.2104 114.443 25.4903 114.332 25.8159C113.909 27.0529 113.681 28.5438 111.865 29.6506C111.78 29.7027 111.038 30.1649 110.328 30.6858C110.315 30.6923 110.309 30.6988 110.296 30.7053C110.1 31.0308 110.055 31.1675 110.569 30.7964C111.279 30.2886 112.008 29.8329 112.092 29.7808C113.896 28.6935 114.124 27.2091 114.547 25.9786C114.651 25.6531 114.807 25.3796 114.983 25.1388C115.374 24.6309 115.569 24.3965 115.087 24.5398L115.094 24.5333Z" fill="#99733F"/>
<path d="M116.63 23.9794C115.895 24.2528 114.931 24.8193 114.56 25.9716C114.267 26.8245 114.059 27.8337 113.343 28.7126C113.043 29.0902 112.887 29.305 113.492 28.9795C114.221 28.5889 114.97 28.2438 115.061 28.2048C116.91 27.3909 117.281 25.9521 117.822 24.7997C117.958 24.4937 118.134 24.2398 118.336 24.0315C118.85 23.4976 119.065 23.2958 118.154 23.5302C117.366 23.7385 116.637 23.9859 116.637 23.9859L116.63 23.9794Z" fill="url(#paint19_linear_1011_20522)"/>
<path d="M114.964 25.8935C115.484 24.6174 116.676 23.9794 117.587 23.6864C117.587 23.6799 116.63 23.9663 116.63 23.9794C115.895 24.2528 114.931 24.8192 114.56 25.9716C114.43 26.3492 114.313 26.7594 114.163 27.1761C114.514 26.6943 114.814 26.245 114.964 25.9V25.8935Z" fill="#EBD6BB"/>
<path d="M118.492 23.4457C118.414 23.5434 118.291 23.6671 118.141 23.8298C117.939 24.0447 117.763 24.2986 117.626 24.6046C117.086 25.7635 116.708 27.2088 114.846 28.0357C114.755 28.0747 114 28.4263 113.264 28.8234C113.251 28.8234 113.245 28.8299 113.232 28.8365C113.01 29.1294 112.958 29.2531 113.486 28.9667C114.215 28.576 114.964 28.231 115.055 28.1919C116.904 27.3781 117.275 25.9393 117.815 24.7869C117.952 24.4809 118.128 24.227 118.33 24.0186C118.759 23.5694 118.974 23.3611 118.492 23.4392V23.4457Z" fill="#99733F"/>
<path d="M120.042 23.1072C119.293 23.2829 118.304 23.7126 117.822 24.7934C117.451 25.5942 117.138 26.5643 116.363 27.326C116.031 27.658 115.862 27.8469 116.481 27.606C117.223 27.3195 117.985 27.0851 118.076 27.0591C119.951 26.5122 120.472 25.1319 121.116 24.0642C121.279 23.7843 121.481 23.5499 121.696 23.3676C122.256 22.9053 122.49 22.7295 121.572 22.8467C120.778 22.9509 120.042 23.1006 120.042 23.1006V23.1072Z" fill="url(#paint20_linear_1011_20522)"/>
<path d="M118.226 24.7739C118.864 23.5825 120.088 23.1137 121.006 22.9379C121.006 22.9314 120.042 23.0942 120.042 23.1007C119.293 23.2765 118.304 23.7062 117.822 24.7869C117.659 25.1385 117.503 25.5291 117.314 25.9198C117.705 25.4901 118.043 25.0929 118.226 24.7674V24.7739Z" fill="#EBD6BB"/>
<path d="M121.917 22.8207C121.832 22.9054 121.696 23.0161 121.533 23.1593C121.311 23.3416 121.116 23.576 120.947 23.8559C120.296 24.9302 119.775 26.3104 117.887 26.8768C117.796 26.9029 117.028 27.1438 116.279 27.4367C116.266 27.4367 116.259 27.4432 116.246 27.4498C115.999 27.7037 115.94 27.8209 116.474 27.6125C117.216 27.3261 117.978 27.0917 118.069 27.0656C119.944 26.5187 120.465 25.1385 121.11 24.0708C121.272 23.7908 121.474 23.5564 121.689 23.3741C122.158 22.9835 122.392 22.8077 121.91 22.8207H121.917Z" fill="#99733F"/>
<path d="M123.466 22.6842C122.718 22.7624 121.702 23.0619 121.116 24.071C120.667 24.8132 120.263 25.7312 119.43 26.3823C119.072 26.6622 118.89 26.8315 119.515 26.6752C120.263 26.4929 121.032 26.3627 121.123 26.3497C123.004 26.0502 123.668 24.7546 124.417 23.7715C124.612 23.5111 124.827 23.3093 125.062 23.153C125.661 22.7624 125.908 22.6191 124.996 22.6191C124.209 22.6257 123.473 22.6777 123.466 22.6777V22.6842Z" fill="url(#paint21_linear_1011_20522)"/>
<path d="M121.507 24.1035C122.256 23.0098 123.506 22.6973 124.424 22.6387C124.424 22.6322 123.46 22.6712 123.46 22.6777C122.711 22.7559 121.696 23.0553 121.11 24.0645C120.908 24.3965 120.719 24.7611 120.498 25.1192C120.921 24.7481 121.292 24.3965 121.507 24.097V24.1035Z" fill="#EBD6BB"/>
<path d="M125.335 22.6321C125.237 22.7037 125.101 22.8014 124.918 22.9185C124.684 23.0748 124.463 23.2766 124.267 23.537C123.519 24.5201 122.855 25.8223 120.953 26.1348C120.862 26.1478 120.088 26.2845 119.332 26.4733C119.319 26.4733 119.313 26.4733 119.3 26.4798C119.033 26.7012 118.961 26.8054 119.508 26.6751C120.257 26.4928 121.025 26.3626 121.116 26.3496C122.998 26.0501 123.662 24.7545 124.411 23.7714C124.606 23.511 124.821 23.3092 125.055 23.1529C125.556 22.8209 125.804 22.6777 125.329 22.6321H125.335Z" fill="#99733F"/>
<path d="M126.872 22.6774C126.123 22.6644 125.094 22.8402 124.411 23.7647C123.89 24.4418 123.395 25.3077 122.509 25.8415C122.132 26.0759 121.936 26.2126 122.562 26.141C123.317 26.0564 124.078 26.0238 124.17 26.0173C126.051 25.9587 126.839 24.7478 127.685 23.8623C127.907 23.628 128.141 23.4522 128.388 23.3285C129.02 23.0094 129.28 22.8988 128.382 22.7946C127.601 22.71 126.872 22.6709 126.872 22.6709V22.6774Z" fill="url(#paint22_linear_1011_20522)"/>
<path d="M124.795 23.8496C125.648 22.86 126.911 22.6972 127.822 22.7493C127.822 22.7493 126.871 22.6711 126.871 22.6777C126.123 22.6646 125.094 22.8404 124.411 23.7649C124.183 24.0644 123.955 24.403 123.694 24.735C124.15 24.4225 124.554 24.1165 124.795 23.8496Z" fill="#EBD6BB"/>
<path d="M128.72 22.8533C128.616 22.9184 128.467 22.99 128.278 23.0877C128.03 23.2114 127.789 23.3871 127.568 23.628C126.722 24.5135 125.927 25.7309 124.033 25.8026C123.942 25.8026 123.167 25.8481 122.412 25.9328C122.399 25.9328 122.392 25.9328 122.379 25.9328C122.099 26.1151 122.015 26.2127 122.561 26.1541C123.317 26.0695 124.078 26.0369 124.17 26.0304C126.051 25.9718 126.839 24.7609 127.685 23.8754C127.907 23.6411 128.141 23.4653 128.388 23.3416C128.916 23.0746 129.183 22.9574 128.714 22.8598L128.72 22.8533Z" fill="#99733F"/>
<path d="M130.238 23.0811C129.502 22.9834 128.467 23.0355 127.692 23.8754C127.106 24.4874 126.527 25.2817 125.596 25.7048C125.198 25.8871 124.99 26.0043 125.609 26.0108C126.357 26.0174 127.119 26.0759 127.204 26.0825C129.066 26.2452 129.977 25.1319 130.908 24.3572C131.149 24.1488 131.403 24.0056 131.663 23.9079C132.321 23.667 132.594 23.5824 131.716 23.3741C130.954 23.1983 130.231 23.0811 130.231 23.0811H130.238Z" fill="url(#paint23_linear_1011_20522)"/>
<path d="M128.063 23.9988C129.007 23.1134 130.277 23.1069 131.175 23.2631C131.175 23.2631 130.244 23.0743 130.237 23.0808C129.502 22.9832 128.467 23.0353 127.692 23.8751C127.431 24.1486 127.171 24.4546 126.885 24.7475C127.366 24.4936 127.796 24.2397 128.063 23.9988Z" fill="#EBD6BB"/>
<path d="M132.047 23.4585C131.937 23.5106 131.78 23.5692 131.585 23.6408C131.325 23.7385 131.071 23.8817 130.83 24.0965C129.899 24.8778 128.981 25.9911 127.099 25.8349C127.008 25.8349 126.246 25.7763 125.485 25.7697C125.472 25.7697 125.465 25.7697 125.452 25.7697C125.159 25.9195 125.068 26.0041 125.608 26.0106C126.357 26.0172 127.119 26.0757 127.203 26.0823C129.066 26.245 129.977 25.1317 130.908 24.357C131.149 24.1486 131.403 24.0054 131.663 23.9077C132.217 23.6994 132.49 23.6147 132.041 23.465L132.047 23.4585Z" fill="#99733F"/>
<path d="M133.532 23.856C132.809 23.6737 131.774 23.6151 130.921 24.3573C130.277 24.8977 129.612 25.6204 128.649 25.9329C128.239 26.0696 128.017 26.1608 128.629 26.2389C129.372 26.3366 130.114 26.4798 130.198 26.4993C132.021 26.8704 133.057 25.8743 134.059 25.2037C134.32 25.0214 134.593 24.9107 134.86 24.8391C135.544 24.6698 135.824 24.6178 134.971 24.3183C134.228 24.0644 133.525 23.8625 133.525 23.8625L133.532 23.856Z" fill="url(#paint24_linear_1011_20522)"/>
<path d="M131.273 24.5266C132.308 23.7584 133.564 23.8886 134.443 24.1425C134.443 24.1425 133.538 23.8495 133.532 23.856C132.809 23.6737 131.774 23.6151 130.921 24.3573C130.635 24.5982 130.342 24.8717 130.023 25.1321C130.53 24.9303 130.98 24.735 131.273 24.5266Z" fill="#EBD6BB"/>
<path d="M135.29 24.4353C135.179 24.4744 135.016 24.5134 134.808 24.5655C134.541 24.6371 134.268 24.7478 134.007 24.9301C132.998 25.6007 131.963 26.6033 130.12 26.2387C130.029 26.2192 129.281 26.0825 128.532 25.9848C128.519 25.9848 128.512 25.9848 128.499 25.9848C128.193 26.0955 128.089 26.1736 128.623 26.2387C129.365 26.3364 130.107 26.4796 130.192 26.4992C132.015 26.8703 133.05 25.8741 134.053 25.2036C134.313 25.0213 134.587 24.9106 134.854 24.839C135.426 24.6957 135.706 24.6371 135.277 24.4418L135.29 24.4353Z" fill="#99733F"/>
<path d="M136.722 24.9887C136.019 24.7348 134.997 24.559 134.072 25.1971C133.369 25.6593 132.64 26.3039 131.65 26.5057C131.227 26.5968 130.999 26.6554 131.598 26.8052C132.321 26.9875 133.044 27.2088 133.128 27.2349C134.899 27.8078 136.038 26.9224 137.113 26.369C137.393 26.2192 137.673 26.1346 137.946 26.0955C138.643 26.0044 138.929 25.9783 138.109 25.5942C137.399 25.2622 136.722 24.9887 136.716 24.9887H136.722Z" fill="url(#paint25_linear_1011_20522)"/>
<path d="M134.404 25.3989C135.511 24.7543 136.755 25.0148 137.601 25.3663C137.601 25.3663 136.729 24.9822 136.722 24.9887C136.019 24.7348 134.997 24.559 134.072 25.1971C133.76 25.4054 133.441 25.6463 133.096 25.8677C133.623 25.7244 134.092 25.5747 134.404 25.4054V25.3989Z" fill="#EBD6BB"/>
<path d="M138.415 25.7441C138.298 25.7701 138.135 25.7896 137.92 25.8222C137.647 25.8612 137.36 25.9459 137.08 26.0956C135.999 26.649 134.86 27.5345 133.07 26.968C132.985 26.942 132.249 26.7206 131.52 26.5383C131.507 26.5383 131.501 26.5383 131.494 26.5318C131.175 26.6035 131.071 26.6686 131.592 26.7988C132.314 26.9811 133.037 27.2024 133.122 27.2285C134.893 27.8014 136.032 26.916 137.106 26.3626C137.386 26.2128 137.666 26.1282 137.939 26.0891C138.525 26.011 138.812 25.985 138.402 25.7375L138.415 25.7441Z" fill="#99733F"/>
<path d="M139.782 26.4471C139.111 26.1216 138.109 25.8351 137.113 26.3755C136.364 26.7596 135.563 27.3195 134.561 27.4107C134.131 27.4498 133.896 27.4888 134.476 27.7037C135.179 27.9576 135.876 28.2636 135.954 28.2961C137.66 29.0514 138.89 28.2961 140.023 27.8599C140.322 27.7427 140.609 27.6841 140.889 27.6776C141.598 27.6581 141.885 27.6646 141.104 27.1958C140.427 26.7922 139.782 26.4471 139.775 26.4536L139.782 26.4471Z" fill="url(#paint26_linear_1011_20522)"/>
<path d="M137.425 26.6101C138.597 26.0893 139.808 26.4799 140.622 26.9161C140.622 26.9161 139.789 26.4409 139.789 26.4474C139.118 26.1218 138.115 25.8354 137.119 26.3758C136.787 26.545 136.442 26.7469 136.078 26.9357C136.618 26.851 137.1 26.7534 137.432 26.6166L137.425 26.6101Z" fill="#EBD6BB"/>
<path d="M141.397 27.3719C141.28 27.3849 141.11 27.3914 140.895 27.398C140.615 27.4045 140.322 27.4631 140.029 27.5802C138.897 28.0165 137.66 28.7717 135.941 28.0165C135.856 27.9839 135.153 27.6779 134.443 27.424C134.43 27.424 134.424 27.4175 134.417 27.411C134.092 27.45 133.981 27.5021 134.489 27.6844C135.192 27.9383 135.889 28.2443 135.967 28.2769C137.673 29.0321 138.903 28.2769 140.036 27.8407C140.335 27.7235 140.622 27.6649 140.902 27.6584C141.501 27.6388 141.787 27.6454 141.403 27.3589L141.397 27.3719Z" fill="#99733F"/>
<path d="M142.692 28.205C142.054 27.8079 141.084 27.4303 140.036 27.8535C139.248 28.1529 138.389 28.6217 137.373 28.6087C136.943 28.6087 136.702 28.6152 137.262 28.8886C137.933 29.2142 138.597 29.5853 138.675 29.6308C140.296 30.5553 141.611 29.9368 142.79 29.6308C143.096 29.5462 143.395 29.5202 143.675 29.5397C144.385 29.5918 144.671 29.6308 143.942 29.084C143.311 28.6152 142.699 28.2115 142.699 28.2115L142.692 28.205Z" fill="url(#paint27_linear_1011_20522)"/>
<path d="M140.316 28.1267C141.546 27.7361 142.712 28.2504 143.48 28.7583C143.48 28.7583 142.699 28.2049 142.692 28.2114C142.054 27.8142 141.084 27.4366 140.036 27.8598C139.684 27.9965 139.32 28.1593 138.936 28.3025C139.483 28.2765 139.977 28.2309 140.316 28.1267Z" fill="#EBD6BB"/>
<path d="M144.203 29.2922C144.079 29.2922 143.916 29.2792 143.701 29.2661C143.421 29.2466 143.122 29.2661 142.816 29.3573C141.631 29.6698 140.322 30.2883 138.682 29.3573C138.604 29.3117 137.933 28.9406 137.249 28.6151C137.236 28.6151 137.23 28.6086 137.223 28.6021C136.898 28.6021 136.774 28.6476 137.262 28.882C137.933 29.2075 138.597 29.5786 138.675 29.6242C140.296 30.5487 141.611 29.9302 142.79 29.6242C143.096 29.5396 143.395 29.5135 143.675 29.5331C144.274 29.5786 144.561 29.6112 144.209 29.2922H144.203Z" fill="#99733F"/>
<path d="M145.414 30.2492C144.815 29.7934 143.89 29.3181 142.79 29.6241C141.97 29.839 141.065 30.2166 140.049 30.0929C139.619 30.0408 139.378 30.0343 139.906 30.3598C140.544 30.757 141.169 31.1932 141.24 31.2388C142.764 32.326 144.144 31.8508 145.355 31.662C145.674 31.6099 145.974 31.6164 146.247 31.662C146.95 31.7857 147.237 31.8573 146.559 31.2388C145.974 30.7114 145.407 30.2426 145.407 30.2492H145.414Z" fill="url(#paint28_linear_1011_20522)"/>
<path d="M143.044 29.9234C144.313 29.663 145.427 30.2945 146.143 30.8739C146.143 30.8739 145.42 30.2424 145.414 30.2489C144.815 29.7932 143.89 29.3179 142.79 29.6239C142.425 29.7216 142.041 29.8453 141.644 29.9494C142.191 29.982 142.692 29.9885 143.044 29.9234Z" fill="#EBD6BB"/>
<path d="M146.807 31.4795C146.683 31.4665 146.52 31.4405 146.306 31.4014C146.026 31.3558 145.726 31.3493 145.407 31.4014C144.19 31.5902 142.809 32.0655 141.273 30.9782C141.195 30.9261 140.563 30.4899 139.925 30.0928C139.912 30.0928 139.912 30.0798 139.899 30.0733C139.574 30.0472 139.45 30.0733 139.912 30.3532C140.55 30.7504 141.175 31.1866 141.247 31.2321C142.77 32.3194 144.151 31.8441 145.361 31.6553C145.68 31.6032 145.98 31.6098 146.253 31.6553C146.846 31.7595 147.132 31.8246 146.813 31.473L146.807 31.4795Z" fill="#99733F"/>
<path d="M147.914 32.5541C147.367 32.0397 146.488 31.4733 145.355 31.6686C144.515 31.7988 143.565 32.0723 142.562 31.8509C142.132 31.7598 141.898 31.7207 142.393 32.0983C142.985 32.5541 143.565 33.0489 143.636 33.1075C145.049 34.338 146.475 34.0059 147.705 33.9473C148.031 33.9278 148.33 33.9604 148.597 34.0385C149.287 34.2403 149.561 34.3315 148.955 33.6544C148.428 33.0684 147.907 32.5541 147.907 32.5541H147.914Z" fill="url(#paint29_linear_1011_20522)"/>
<path d="M145.583 31.9877C146.885 31.8575 147.927 32.5997 148.578 33.2508C148.578 33.2508 147.92 32.5542 147.914 32.5607C147.367 32.0463 146.488 31.4799 145.355 31.6752C144.984 31.7338 144.587 31.8185 144.177 31.8771C144.724 31.9617 145.225 32.0203 145.583 31.9942V31.9877Z" fill="#EBD6BB"/>
<path d="M149.183 33.915C149.066 33.8889 148.897 33.8434 148.688 33.7848C148.415 33.7066 148.116 33.6741 147.79 33.6936C146.553 33.7522 145.127 34.0843 143.695 32.8472C143.623 32.7886 143.037 32.2938 142.438 31.8316C142.432 31.8251 142.425 31.8186 142.412 31.8121C142.087 31.747 141.963 31.76 142.393 32.092C142.985 32.5478 143.565 33.0426 143.636 33.1012C145.049 34.3317 146.475 33.9996 147.705 33.941C148.031 33.9215 148.33 33.954 148.597 34.0322C149.183 34.1949 149.457 34.2926 149.177 33.9085L149.183 33.915Z" fill="#99733F"/>
<path d="M150.179 35.0932C149.685 34.5267 148.864 33.8757 147.712 33.9473C146.852 33.9864 145.876 34.1621 144.899 33.8366C144.483 33.6999 144.248 33.6413 144.704 34.0645C145.251 34.5788 145.778 35.1257 145.843 35.1908C147.126 36.5515 148.591 36.3757 149.828 36.4474C150.153 36.4604 150.446 36.5255 150.713 36.6297C151.384 36.8966 151.651 37.0203 151.117 36.2846C150.648 35.6531 150.186 35.0866 150.186 35.0866L150.179 35.0932Z" fill="url(#paint30_linear_1011_20522)"/>
<path d="M147.907 34.2858C149.222 34.2923 150.192 35.1322 150.772 35.8418C150.772 35.8418 150.192 35.0866 150.186 35.0866C149.691 34.5202 148.871 33.8691 147.718 33.9407C147.341 33.9603 146.931 33.9993 146.514 34.0189C147.048 34.1621 147.543 34.2728 147.907 34.2793V34.2858Z" fill="#EBD6BB"/>
<path d="M151.306 36.5709C151.189 36.5318 151.026 36.4732 150.824 36.3886C150.557 36.2844 150.264 36.2193 149.939 36.2063C148.695 36.1346 147.23 36.3169 145.935 34.9432C145.869 34.8781 145.336 34.3247 144.782 33.8104C144.776 33.8039 144.769 33.7973 144.763 33.7908C144.444 33.6932 144.32 33.6932 144.711 34.0643C145.257 34.5786 145.785 35.1255 145.85 35.1906C147.132 36.5513 148.597 36.3755 149.834 36.4472C150.16 36.4602 150.453 36.5253 150.72 36.6294C151.286 36.8508 151.553 36.9745 151.312 36.5709H151.306Z" fill="#99733F"/>
<path d="M152.172 37.8341C151.735 37.2221 150.987 36.493 149.828 36.4474C148.968 36.4018 147.972 36.4669 147.028 36.0437C146.625 35.8679 146.397 35.7833 146.807 36.2456C147.302 36.812 147.77 37.4044 147.823 37.4761C148.962 38.9605 150.44 38.9344 151.67 39.1363C151.996 39.1818 152.282 39.2795 152.536 39.4097C153.174 39.7482 153.428 39.898 152.972 39.1102C152.575 38.4331 152.172 37.8276 152.165 37.8276L152.172 37.8341Z" fill="url(#paint31_linear_1011_20522)"/>
<path d="M149.984 36.8055C151.299 36.9487 152.178 37.8798 152.679 38.648C152.679 38.648 152.178 37.8342 152.172 37.8407C151.735 37.2287 150.987 36.4995 149.828 36.4539C149.444 36.4344 149.033 36.4344 148.617 36.4019C149.138 36.5972 149.619 36.7599 149.984 36.8055Z" fill="#EBD6BB"/>
<path d="M153.135 39.4164C153.025 39.3709 152.868 39.2862 152.68 39.1886C152.426 39.0584 152.139 38.9607 151.814 38.9086C150.583 38.7068 149.099 38.7328 147.946 37.2419C147.888 37.1703 147.412 36.5713 146.911 36.0049C146.905 35.9984 146.898 35.9919 146.892 35.9789C146.586 35.8487 146.455 35.8356 146.813 36.2458C147.308 36.8122 147.777 37.4047 147.829 37.4763C148.968 38.9607 150.446 38.9347 151.677 39.1365C152.002 39.1821 152.289 39.2797 152.543 39.4099C153.083 39.6899 153.337 39.8396 153.142 39.4099L153.135 39.4164Z" fill="#99733F"/>
<path d="M153.871 40.7702C153.506 40.1191 152.836 39.3118 151.683 39.149C150.83 39.0123 149.828 38.9733 148.929 38.4589C148.545 38.2376 148.33 38.1334 148.688 38.6347C149.118 39.2402 149.528 39.8847 149.574 39.9629C150.55 41.5515 152.028 41.6882 153.233 42.0137C153.552 42.0983 153.825 42.222 154.066 42.3783C154.665 42.7819 154.9 42.9577 154.535 42.1309C154.209 41.4147 153.877 40.7702 153.871 40.7702Z" fill="url(#paint32_linear_1011_20522)"/>
<path d="M151.794 39.5135C153.09 39.7935 153.864 40.8156 154.287 41.6295C154.287 41.6295 153.877 40.7701 153.871 40.7701C153.506 40.119 152.836 39.3117 151.683 39.1489C151.306 39.0903 150.895 39.0448 150.479 38.9731C150.98 39.2205 151.442 39.4289 151.8 39.5135H151.794Z" fill="#EBD6BB"/>
<path d="M154.658 42.4432C154.548 42.3846 154.411 42.287 154.229 42.1698C153.988 42.0135 153.714 41.8833 153.395 41.8052C152.184 41.4731 150.707 41.3429 149.71 39.7413C149.658 39.6632 149.248 39.0186 148.812 38.4067C148.805 38.4001 148.799 38.3936 148.792 38.3806C148.499 38.2244 148.376 38.1983 148.688 38.6345C149.118 39.24 149.528 39.8846 149.574 39.9627C150.55 41.5513 152.028 41.688 153.233 42.0135C153.552 42.0981 153.825 42.2218 154.066 42.3781C154.574 42.7167 154.808 42.8924 154.658 42.4432Z" fill="#99733F"/>
<path d="M155.238 43.8631C154.945 43.173 154.366 42.3005 153.233 42.0141C152.393 41.7862 151.397 41.643 150.557 41.0375C150.199 40.7836 149.991 40.6534 150.297 41.1872C150.661 41.8383 151 42.5154 151.039 42.6C151.84 44.2798 153.298 44.5727 154.463 45.035C154.769 45.1522 155.03 45.3084 155.251 45.4907C155.804 45.9595 156.019 46.1613 155.746 45.2954C155.505 44.5467 155.245 43.8696 155.238 43.8696V43.8631Z" fill="url(#paint33_linear_1011_20522)"/>
<path d="M153.311 42.3916C154.574 42.8083 155.232 43.9021 155.557 44.7615C155.557 44.7615 155.245 43.863 155.238 43.863C154.945 43.1729 154.366 42.3005 153.233 42.014C152.862 41.9098 152.458 41.8252 152.048 41.708C152.517 42.0075 152.959 42.2679 153.304 42.3851L153.311 42.3916Z" fill="#EBD6BB"/>
<path d="M155.831 45.6145C155.733 45.5429 155.596 45.4322 155.433 45.2955C155.212 45.1132 154.952 44.9569 154.646 44.8397C153.48 44.384 152.022 44.0845 151.202 42.3983C151.163 42.3201 150.824 41.63 150.446 40.979C150.446 40.9659 150.44 40.9594 150.433 40.9529C150.16 40.7641 150.036 40.7251 150.303 41.1938C150.668 41.8449 151.006 42.522 151.045 42.6066C151.846 44.2863 153.305 44.5793 154.47 45.0416C154.776 45.1588 155.036 45.315 155.258 45.4973C155.726 45.8879 155.941 46.0898 155.844 45.6275L155.831 45.6145Z" fill="#99733F"/>
<path d="M156.247 47.0921C156.033 46.376 155.557 45.4384 154.464 45.0283C153.656 44.7092 152.68 44.4618 151.911 43.7717C151.579 43.4788 151.391 43.329 151.638 43.8954C151.931 44.579 152.191 45.2952 152.217 45.3798C152.829 47.1377 154.242 47.5934 155.349 48.1794C155.642 48.3291 155.883 48.5114 156.078 48.7198C156.573 49.2471 156.762 49.475 156.593 48.5765C156.443 47.8018 156.254 47.0921 156.254 47.0921H156.247Z" fill="url(#paint34_linear_1011_20522)"/>
<path d="M154.496 45.419C155.707 45.9724 156.241 47.1378 156.462 48.0298C156.469 48.0298 156.254 47.0988 156.247 47.0988C156.032 46.3826 155.557 45.4451 154.463 45.0349C154.105 44.8917 153.715 44.7615 153.318 44.6052C153.754 44.9568 154.164 45.2563 154.496 45.419Z" fill="#EBD6BB"/>
<path d="M156.638 48.9153C156.547 48.8306 156.43 48.7069 156.28 48.5507C156.084 48.3423 155.844 48.1601 155.544 48.0103C154.437 47.4244 153.018 46.9686 152.393 45.1977C152.36 45.1131 152.1 44.3969 151.8 43.7068C151.8 43.6938 151.794 43.6873 151.787 43.6808C151.534 43.4659 151.416 43.4138 151.631 43.9086C151.924 44.5923 152.185 45.3084 152.211 45.3931C152.823 47.1509 154.235 47.6067 155.342 48.1926C155.635 48.3423 155.876 48.5246 156.071 48.733C156.488 49.1757 156.683 49.3971 156.638 48.9283V48.9153Z" fill="#99733F"/>
<path d="M156.879 50.4386C156.755 49.6964 156.39 48.7068 155.349 48.1794C154.58 47.7757 153.636 47.4177 152.953 46.6429C152.66 46.3174 152.484 46.1416 152.666 46.7341C152.881 47.4502 153.057 48.1859 153.077 48.2771C153.48 50.1 154.828 50.7185 155.857 51.4282C156.13 51.6105 156.345 51.8253 156.514 52.0532C156.944 52.6391 157.1 52.8865 157.041 51.9685C156.983 51.1743 156.885 50.4451 156.885 50.4451L156.879 50.4386Z" fill="url(#paint35_linear_1011_20522)"/>
<path d="M155.329 48.5698C156.469 49.2535 156.859 50.484 156.976 51.4019C156.976 51.4019 156.879 50.4449 156.872 50.4449C156.749 49.7027 156.384 48.7131 155.342 48.1857C155.004 48.0034 154.626 47.8342 154.255 47.6323C154.646 48.0295 155.023 48.381 155.329 48.5764V48.5698Z" fill="#EBD6BB"/>
<path d="M157.048 52.3135C156.97 52.2224 156.866 52.0791 156.736 51.9034C156.566 51.6755 156.345 51.4606 156.071 51.2783C155.036 50.5687 153.689 49.9502 153.272 48.1142C153.252 48.0231 153.07 47.2809 152.855 46.5582C152.855 46.5452 152.855 46.5386 152.849 46.5256C152.621 46.2847 152.51 46.2196 152.666 46.734C152.881 47.4501 153.057 48.1858 153.077 48.277C153.48 50.0999 154.828 50.7184 155.857 51.4281C156.13 51.6104 156.345 51.8252 156.514 52.0531C156.879 52.5479 157.042 52.7888 157.055 52.3135H157.048Z" fill="#99733F"/>
<path d="M157.094 53.8763C157.061 53.1081 156.82 52.0729 155.85 51.4283C155.134 50.9335 154.242 50.4778 153.65 49.6249C153.396 49.2603 153.24 49.0715 153.35 49.6835C153.48 50.4192 153.565 51.1874 153.572 51.2786C153.754 53.1601 155.017 53.9284 155.948 54.7617C156.195 54.9766 156.384 55.2175 156.521 55.4649C156.872 56.1094 156.996 56.3764 157.055 55.4388C157.1 54.6315 157.094 53.8763 157.087 53.8763H157.094Z" fill="url(#paint36_linear_1011_20522)"/>
<path d="M155.791 51.8192C156.84 52.633 157.08 53.9156 157.074 54.8596C157.074 54.8596 157.1 53.8765 157.094 53.8765C157.061 53.1083 156.82 52.0731 155.85 51.4286C155.531 51.2072 155.179 50.9924 154.834 50.7515C155.179 51.1942 155.505 51.5848 155.791 51.8192Z" fill="#EBD6BB"/>
<path d="M157.022 55.7908C156.95 55.6866 156.872 55.5368 156.762 55.3415C156.618 55.0876 156.43 54.8467 156.182 54.6319C155.245 53.7985 153.982 53.0238 153.786 51.1357C153.773 51.0445 153.689 50.2763 153.552 49.5341C153.552 49.5211 153.552 49.5146 153.552 49.5015C153.35 49.2346 153.252 49.1565 153.344 49.6903C153.474 50.426 153.558 51.1943 153.565 51.2854C153.747 53.167 155.01 53.9352 155.941 54.7686C156.189 54.9834 156.377 55.2243 156.514 55.4717C156.814 56.0121 156.944 56.279 157.015 55.7908H157.022Z" fill="#99733F"/>
<path d="M156.866 57.3852C156.937 56.6039 156.827 55.5297 155.948 54.768C155.303 54.1885 154.47 53.6221 153.988 52.7041C153.78 52.3135 153.65 52.1051 153.682 52.7302C153.721 53.4854 153.708 54.2666 153.708 54.3643C153.65 56.2849 154.802 57.2094 155.616 58.16C155.831 58.4074 155.987 58.6743 156.091 58.9412C156.351 59.6379 156.443 59.9243 156.625 58.9738C156.775 58.1535 156.866 57.3917 156.866 57.3917V57.3852Z" fill="url(#paint37_linear_1011_20522)"/>
<path d="M155.837 55.152C156.775 56.0961 156.846 57.4177 156.716 58.3813C156.722 58.3813 156.872 57.3852 156.866 57.3852C156.937 56.6039 156.827 55.5297 155.948 54.7679C155.661 54.514 155.336 54.2536 155.023 53.9736C155.31 54.4619 155.583 54.8916 155.837 55.1586V55.152Z" fill="#EBD6BB"/>
<path d="M156.547 59.3189C156.495 59.2083 156.429 59.039 156.351 58.8306C156.247 58.5572 156.091 58.2903 155.87 58.0429C155.049 57.0923 153.897 56.1613 153.942 54.2277C153.942 54.1365 153.955 53.3487 153.91 52.587C153.91 52.574 153.91 52.5675 153.91 52.5545C153.747 52.2615 153.649 52.1703 153.682 52.7172C153.721 53.4724 153.708 54.2537 153.708 54.3514C153.649 56.272 154.802 57.1965 155.616 58.147C155.831 58.3944 155.987 58.6614 156.091 58.9283C156.312 59.5077 156.403 59.8007 156.547 59.3124V59.3189Z" fill="#99733F"/>
<path d="M156.176 60.9273C156.351 60.133 156.39 59.0262 155.616 58.1538C155.049 57.4962 154.301 56.8256 153.936 55.836C153.78 55.4128 153.676 55.1915 153.63 55.836C153.571 56.6108 153.454 57.3985 153.441 57.4962C153.129 59.4429 154.144 60.5236 154.821 61.5848C155.004 61.8648 155.121 62.1513 155.186 62.4442C155.349 63.1864 155.394 63.4924 155.713 62.5354C155.98 61.7085 156.176 60.9403 156.176 60.9403V60.9273Z" fill="url(#paint38_linear_1011_20522)"/>
<path d="M155.459 58.5381C156.267 59.5993 156.156 60.9601 155.889 61.9366C155.896 61.9366 156.182 60.934 156.176 60.934C156.351 60.1397 156.39 59.0329 155.616 58.1605C155.368 57.8675 155.075 57.568 154.802 57.249C155.023 57.7764 155.238 58.2451 155.453 58.5446L155.459 58.5381Z" fill="#EBD6BB"/>
<path d="M155.583 62.8803C155.544 62.7566 155.505 62.5808 155.46 62.3595C155.395 62.0665 155.277 61.78 155.095 61.5001C154.412 60.4388 153.396 59.3581 153.702 57.3919C153.715 57.2942 153.826 56.4999 153.884 55.7187C153.884 55.7057 153.884 55.6991 153.884 55.6861C153.754 55.3736 153.676 55.2694 153.637 55.8294C153.578 56.6041 153.461 57.3919 153.448 57.4896C153.135 59.4362 154.151 60.517 154.828 61.5782C155.011 61.8581 155.128 62.1446 155.193 62.4376C155.33 63.0626 155.382 63.3686 155.59 62.8803H155.583Z" fill="#99733F"/>
<path d="M154.984 64.4948C155.277 63.694 155.472 62.5612 154.821 61.5781C154.353 60.8359 153.702 60.0742 153.474 59.0194C153.376 58.5702 153.304 58.3358 153.174 58.9804C153.011 59.7617 152.784 60.5559 152.758 60.6536C152.178 62.6133 153.024 63.8438 153.545 65.0092C153.689 65.3152 153.76 65.6277 153.78 65.9337C153.832 66.7215 153.832 67.0405 154.294 66.0834C154.685 65.2566 154.991 64.4883 154.984 64.4883V64.4948Z" fill="url(#paint39_linear_1011_20522)"/>
<path d="M154.613 61.9559C155.264 63.1343 154.958 64.5211 154.554 65.5042C154.561 65.5042 154.991 64.5016 154.984 64.5016C155.277 63.7008 155.472 62.5679 154.821 61.5848C154.613 61.2593 154.372 60.9207 154.144 60.5562C154.288 61.1161 154.437 61.6239 154.613 61.9559Z" fill="#EBD6BB"/>
<path d="M154.112 66.4479C154.092 66.3177 154.079 66.1289 154.066 65.8945C154.04 65.5885 153.969 65.276 153.825 64.97C153.304 63.7981 152.452 62.5676 153.024 60.5884C153.051 60.4908 153.272 59.69 153.435 58.9022C153.435 58.8892 153.435 58.8827 153.441 58.8696C153.357 58.5311 153.291 58.4204 153.174 58.9868C153.011 59.7681 152.784 60.5624 152.758 60.66C152.178 62.6197 153.024 63.8502 153.545 65.0156C153.689 65.3216 153.76 65.6341 153.78 65.9401C153.825 66.5977 153.832 66.9232 154.112 66.4414V66.4479Z" fill="#99733F"/>
<path d="M153.265 68.0563C153.676 67.2555 154.04 66.1031 153.539 65.0224C153.181 64.2086 152.647 63.3426 152.569 62.2358C152.53 61.7671 152.497 61.5132 152.276 62.1642C152.002 62.952 151.664 63.7463 151.625 63.844C150.759 65.8036 151.41 67.1774 151.748 68.4469C151.84 68.779 151.866 69.111 151.84 69.4365C151.768 70.2634 151.716 70.5954 152.328 69.6514C152.842 68.8311 153.265 68.0628 153.265 68.0628V68.0563Z" fill="url(#paint40_linear_1011_20522)"/>
<path d="M153.278 65.3806C153.754 66.6697 153.239 68.0759 152.686 69.0525C152.692 69.0525 153.278 68.0564 153.272 68.0564C153.682 67.2556 154.047 66.1032 153.545 65.0225C153.389 64.6579 153.194 64.2868 153.018 63.8896C153.083 64.4821 153.155 65.0225 153.278 65.3871V65.3806Z" fill="#EBD6BB"/>
<path d="M152.093 69.9964C152.093 69.8597 152.113 69.6644 152.132 69.417C152.158 69.0914 152.132 68.7594 152.041 68.4273C151.696 67.1513 151.045 65.7775 151.905 63.8048C151.944 63.7072 152.282 62.9064 152.556 62.1121C152.556 62.0991 152.562 62.0926 152.569 62.0795C152.536 61.728 152.484 61.6043 152.289 62.1707C152.015 62.9585 151.677 63.7528 151.638 63.8504C150.772 65.8101 151.423 67.1838 151.761 68.4534C151.852 68.7854 151.879 69.1175 151.852 69.443C151.794 70.1331 151.748 70.4717 152.106 70.0029L152.093 69.9964Z" fill="#99733F"/>
<path d="M151 71.5913C151.54 70.797 152.087 69.6316 151.755 68.4467C151.521 67.5612 151.123 66.6042 151.215 65.4518C151.247 64.9635 151.254 64.6966 150.935 65.3411C150.544 66.1224 150.082 66.9167 150.03 67.0143C148.864 68.961 149.294 70.4714 149.424 71.8387C149.463 72.1967 149.431 72.5483 149.353 72.8869C149.144 73.7463 149.04 74.0913 149.802 73.1603C150.453 72.353 151 71.5913 150.993 71.5913H151Z" fill="url(#paint41_linear_1011_20522)"/>
<path d="M151.436 68.798C151.709 70.1913 150.974 71.6106 150.257 72.5742C150.264 72.5742 151.006 71.5911 151 71.5911C151.54 70.7968 152.087 69.6314 151.755 68.4465C151.651 68.0493 151.52 67.6457 151.403 67.2095C151.377 67.8345 151.364 68.4074 151.436 68.7915V68.798Z" fill="#EBD6BB"/>
<path d="M149.515 73.4987C149.541 73.3554 149.587 73.1471 149.645 72.8932C149.724 72.5546 149.75 72.2031 149.711 71.845C149.574 70.4713 149.144 68.9673 150.303 67.0011C150.355 66.9035 150.817 66.1027 151.208 65.3149C151.215 65.3019 151.221 65.2954 151.228 65.2823C151.247 64.9112 151.215 64.781 150.935 65.3474C150.544 66.1287 150.082 66.923 150.03 67.0207C148.864 68.9673 149.294 70.4778 149.424 71.845C149.463 72.2031 149.431 72.5546 149.352 72.8932C149.183 73.6159 149.079 73.9674 149.509 73.5052L149.515 73.4987Z" fill="#99733F"/>
<path d="M160.117 97.5699C142.208 93.6638 147.38 97.6934 157.724 119.864C143.582 96.1804 145.11 91.7957 135.739 115.51C141.806 91.5487 138.518 96.6127 121.72 103.931C141.667 92.5831 140.911 93.3242 119.729 84.8791C143.288 91.9347 138.888 88.6153 131.57 71.8332C141.374 87.3184 145.867 89.3101 155.053 65.2871C148.924 90.3445 146.886 89.0167 163.683 81.6987C148.198 91.5024 143.088 90.7922 160.101 97.6007L160.117 97.5699Z" fill="url(#paint42_radial_1011_20522)"/>
<path d="M120.408 91.2712C142.208 93.973 137.205 91.8579 127.016 75.8323C139.552 90.1133 142.563 88.415 147.966 62.2615C145.851 88.8782 145.465 90.9624 161.491 80.7573C147.21 93.2937 144.786 94.0039 166.786 97.5085C145.357 96.5822 144.693 98.0334 158.496 118.289C143.798 99.9015 143.643 94.5288 138.286 119.926C140.231 94.0039 138.672 99.0833 119.049 112.886C138.024 97.246 141.003 96.3351 120.392 91.2712H120.408Z" fill="url(#paint43_radial_1011_20522)"/>
<path d="M121.087 97.6627C141.127 99.3301 134.411 101.893 116.409 121.825C138.873 101.538 138.688 96.443 140.88 124.341C142.223 97.2613 144.045 103.622 159.314 116.714C142.038 98.3883 148.553 99.4999 173.487 97.4465C146.5 97.2613 146.222 95.1153 159.314 79.8462C144.045 92.9384 142.794 87.4267 140.88 59.2661C139.243 87.5348 137.715 92.9229 122.446 79.8462C135.538 95.1153 141.127 96.0107 121.087 97.6781V97.6627Z" fill="url(#paint44_radial_1011_20522)"/>
<path d="M125.997 98.8518C142.13 97.4777 137.128 100.427 125.518 118.644C140.617 99.5311 139.799 95.517 145.265 117.363C142.702 95.6868 145.002 100.488 158.866 108.841C142.702 96.5977 148.028 96.6132 167.543 91.6573C146.098 95.131 145.589 93.4636 153.926 79.5995C143.566 92.0278 141.822 87.8284 136.542 65.7354C139.027 88.3842 138.533 92.877 124.669 84.5399C137.097 94.8994 141.667 94.8686 125.981 98.8672L125.997 98.8518Z" fill="url(#paint45_radial_1011_20522)"/>
<path d="M130.922 100.056C143.134 95.656 139.877 98.9754 134.643 115.495C142.393 97.555 140.927 94.6216 149.68 110.416C143.212 94.143 145.991 97.4006 158.465 100.998C143.412 94.8532 147.534 93.7725 161.63 85.8832C145.728 93.0005 144.987 91.8118 148.584 79.3526C143.119 91.1324 140.911 88.2299 132.25 72.2043C138.858 89.2489 139.414 92.8153 126.939 89.2335C138.719 94.6988 142.239 93.7262 130.922 100.072V100.056Z" fill="url(#paint46_radial_1011_20522)"/>
<path d="M138.039 108.022C143.088 96.0573 142.439 95.7331 149.047 107.297C143.736 94.7913 144.338 96.2117 154.945 98.9598C143.335 94.4517 146.453 93.9113 156.195 88.2298C144.647 93.6025 144.74 92.0586 147.364 81.9153C143.366 91.9197 141.93 90.4221 135.847 79.7075C140.463 91.1632 139.83 92.8924 129.193 90.0979C139.336 94.3745 141.853 94.359 133.485 99.2841C142.532 95.7794 141.297 96.6286 138.024 108.022H138.039Z" fill="url(#paint47_radial_1011_20522)"/>
<path d="M141.42 100.534C143.767 94.5435 143.937 96.8439 148.399 104.177C144.23 95.439 142.655 95.0376 151.409 96.9057C143.242 94.0186 145.357 94.034 150.761 90.5603C143.566 94.173 144.508 92.274 146.16 84.4619C143.628 92.7063 142.949 92.5982 139.475 87.1946C142.084 93.0614 140.278 92.9533 131.493 90.9617C140 94.0495 141.513 95.0067 136.109 98.4959C141.976 95.8867 142.763 94.2502 141.451 100.549L141.42 100.534Z" fill="url(#paint48_radial_1011_20522)"/>
<defs>
<radialGradient id="paint0_radial_1011_20522" cx="0" cy="0" r="1" gradientUnits="userSpaceOnUse" gradientTransform="translate(57.3603 45.7389) scale(92.2288)">
<stop stop-color="#99827F"/>
<stop offset="0.05" stop-color="#957472"/>
<stop offset="0.23" stop-color="#844F4A"/>
<stop offset="0.39" stop-color="#7A3833"/>
<stop offset="0.51" stop-color="#77302A"/>
<stop offset="0.77" stop-color="#6C1D16"/>
<stop offset="0.78" stop-color="#6C1D16"/>
<stop offset="0.86" stop-color="#72241D"/>
<stop offset="0.98" stop-color="#7C3E38"/>
<stop offset="1" stop-color="#7F453F"/>
</radialGradient>
<radialGradient id="paint1_radial_1011_20522" cx="0" cy="0" r="1" gradientUnits="userSpaceOnUse" gradientTransform="translate(56.7162 45.107) rotate(-18.99) scale(59.8322)">
<stop stop-color="#F7B5B5"/>
<stop offset="0.03" stop-color="#F0ACAC"/>
<stop offset="0.27" stop-color="#BD7F7F"/>
<stop offset="0.49" stop-color="#9A5656"/>
<stop offset="0.69" stop-color="#853535"/>
<stop offset="0.87" stop-color="#782121"/>
<stop offset="1" stop-color="#741A1A"/>
</radialGradient>
<linearGradient id="paint2_linear_1011_20522" x1="44.91" y1="31.7401" x2="91.415" y2="98.0372" gradientUnits="userSpaceOnUse">
<stop stop-color="#B47878"/>
<stop offset="0.3" stop-color="#944B4B"/>
<stop offset="0.58" stop-color="#7E2828"/>
<stop offset="0.82" stop-color="#721313"/>
<stop offset="1" stop-color="#6B0D0D"/>
</linearGradient>
<linearGradient id="paint3_linear_1011_20522" x1="104.798" y1="39.3656" x2="116.8" y2="44.8997" gradientUnits="userSpaceOnUse">
<stop offset="0.08" stop-color="#781E1E"/>
<stop offset="0.44" stop-color="#721515"/>
<stop offset="0.72" stop-color="#6B0D0D"/>
<stop offset="0.73" stop-color="#6B0D0D"/>
<stop offset="0.83" stop-color="#711111"/>
<stop offset="0.97" stop-color="#7D2828"/>
</linearGradient>
<linearGradient id="paint4_linear_1011_20522" x1="104.568" y1="39.4589" x2="95.0626" y2="28.4352" gradientUnits="userSpaceOnUse">
<stop offset="0.32" stop-color="#781E1E"/>
<stop offset="0.45" stop-color="#7D2626"/>
<stop offset="0.62" stop-color="#893C3C"/>
<stop offset="0.82" stop-color="#A05F5F"/>
<stop offset="0.88" stop-color="#9B5858"/>
<stop offset="0.97" stop-color="#8F4343"/>
</linearGradient>
<linearGradient id="paint5_linear_1011_20522" x1="117.139" y1="39.1695" x2="101.006" y2="23.5126" gradientUnits="userSpaceOnUse">
<stop offset="0.04" stop-color="#7D2828"/>
<stop offset="0.15" stop-color="#823131"/>
<stop offset="0.33" stop-color="#934C4C"/>
<stop offset="0.55" stop-color="#B07676"/>
<stop offset="0.68" stop-color="#CD8C8C"/>
<stop offset="0.79" stop-color="#D39090"/>
<stop offset="0.95" stop-color="#E69F9F"/>
<stop offset="1" stop-color="#EFA7A7"/>
</linearGradient>
<linearGradient id="paint6_linear_1011_20522" x1="109.111" y1="22.1937" x2="109.688" y2="40.8156" gradientUnits="userSpaceOnUse">
<stop stop-color="#9B5656"/>
<stop offset="0.02" stop-color="#995353"/>
<stop offset="0.41" stop-color="#833131"/>
<stop offset="0.75" stop-color="#771C1C"/>
<stop offset="1" stop-color="#721515"/>
</linearGradient>
<linearGradient id="paint7_linear_1011_20522" x1="105.284" y1="26.6086" x2="114.744" y2="35.1063" gradientUnits="userSpaceOnUse">
<stop offset="0.04" stop-color="#8F4343"/>
<stop offset="0.26" stop-color="#944C4C"/>
<stop offset="0.61" stop-color="#A36A6A"/>
<stop offset="0.68" stop-color="#A97070"/>
<stop offset="0.78" stop-color="#AE7474"/>
<stop offset="0.9" stop-color="#C28282"/>
<stop offset="1" stop-color="#D69292"/>
</linearGradient>
<radialGradient id="paint8_radial_1011_20522" cx="0" cy="0" r="1" gradientUnits="userSpaceOnUse" gradientTransform="translate(109.27 33.1066) rotate(1.94) scale(8.81154 8.72599)">
<stop offset="0.22" stop-color="#6B0D0D"/>
<stop offset="0.45" stop-color="#721414"/>
<stop offset="0.8" stop-color="#833030"/>
<stop offset="1" stop-color="#8F4343"/>
</radialGradient>
<linearGradient id="paint9_linear_1011_20522" x1="146.839" y1="72.0339" x2="149.691" y2="71.8516" gradientUnits="userSpaceOnUse">
<stop offset="0.04" stop-color="#99733F"/>
<stop offset="0.21" stop-color="#AF8853"/>
<stop offset="0.54" stop-color="#D6AD76"/>
<stop offset="0.69" stop-color="#D4A970"/>
<stop offset="0.89" stop-color="#CF9F5F"/>
<stop offset="1" stop-color="#CC9954"/>
</linearGradient>
<linearGradient id="paint10_linear_1011_20522" x1="145.049" y1="75.8816" x2="147.738" y2="74.9571" gradientUnits="userSpaceOnUse">
<stop offset="0.04" stop-color="#99733F"/>
<stop offset="0.21" stop-color="#AF8853"/>
<stop offset="0.54" stop-color="#D6AD76"/>
<stop offset="0.69" stop-color="#D4A970"/>
<stop offset="0.89" stop-color="#CF9F5F"/>
<stop offset="1" stop-color="#CC9954"/>
</linearGradient>
<linearGradient id="paint11_linear_1011_20522" x1="143.76" y1="79.3582" x2="146.423" y2="78.1733" gradientUnits="userSpaceOnUse">
<stop offset="0.04" stop-color="#99733F"/>
<stop offset="0.21" stop-color="#AF8853"/>
<stop offset="0.54" stop-color="#D6AD76"/>
<stop offset="0.69" stop-color="#D4A970"/>
<stop offset="0.89" stop-color="#CF9F5F"/>
<stop offset="1" stop-color="#CC9954"/>
</linearGradient>
<linearGradient id="paint12_linear_1011_20522" x1="142.757" y1="82.4573" x2="145.563" y2="81.6695" gradientUnits="userSpaceOnUse">
<stop offset="0.04" stop-color="#99733F"/>
<stop offset="0.21" stop-color="#AF8853"/>
<stop offset="0.54" stop-color="#D6AD76"/>
<stop offset="0.69" stop-color="#D4A970"/>
<stop offset="0.89" stop-color="#CF9F5F"/>
<stop offset="1" stop-color="#CC9954"/>
</linearGradient>
<linearGradient id="paint13_linear_1011_20522" x1="142.393" y1="86.1814" x2="144.782" y2="84.8597" gradientUnits="userSpaceOnUse">
<stop offset="0.04" stop-color="#99733F"/>
<stop offset="0.21" stop-color="#AF8853"/>
<stop offset="0.54" stop-color="#D6AD76"/>
<stop offset="0.69" stop-color="#D4A970"/>
<stop offset="0.89" stop-color="#CF9F5F"/>
<stop offset="1" stop-color="#CC9954"/>
</linearGradient>
<linearGradient id="paint14_linear_1011_20522" x1="142.347" y1="89.3196" x2="144.893" y2="88.1347" gradientUnits="userSpaceOnUse">
<stop offset="0.04" stop-color="#99733F"/>
<stop offset="0.21" stop-color="#AF8853"/>
<stop offset="0.54" stop-color="#D6AD76"/>
<stop offset="0.69" stop-color="#D4A970"/>
<stop offset="0.89" stop-color="#CF9F5F"/>
<stop offset="1" stop-color="#CC9954"/>
</linearGradient>
<linearGradient id="paint15_linear_1011_20522" x1="142.627" y1="92.8676" x2="145.108" y2="91.2465" gradientUnits="userSpaceOnUse">
<stop offset="0.04" stop-color="#99733F"/>
<stop offset="0.21" stop-color="#AF8853"/>
<stop offset="0.54" stop-color="#D6AD76"/>
<stop offset="0.69" stop-color="#D4A970"/>
<stop offset="0.89" stop-color="#CF9F5F"/>
<stop offset="1" stop-color="#CC9954"/>
</linearGradient>
<linearGradient id="paint16_linear_1011_20522" x1="108.336" y1="30.6789" x2="105.693" y2="29.8716" gradientUnits="userSpaceOnUse">
<stop offset="0.04" stop-color="#99733F"/>
<stop offset="0.21" stop-color="#AF8853"/>
<stop offset="0.54" stop-color="#D6AD76"/>
<stop offset="0.69" stop-color="#D4A970"/>
<stop offset="0.89" stop-color="#CF9F5F"/>
<stop offset="1" stop-color="#CC9954"/>
</linearGradient>
<linearGradient id="paint17_linear_1011_20522" x1="110.777" y1="29.95" x2="108.388" y2="29.2338" gradientUnits="userSpaceOnUse">
<stop offset="0.04" stop-color="#99733F"/>
<stop offset="0.21" stop-color="#AF8853"/>
<stop offset="0.54" stop-color="#D6AD76"/>
<stop offset="0.69" stop-color="#D4A970"/>
<stop offset="0.89" stop-color="#CF9F5F"/>
<stop offset="1" stop-color="#CC9954"/>
</linearGradient>
<linearGradient id="paint18_linear_1011_20522" x1="113.916" y1="28.2117" x2="111.552" y2="27.2612" gradientUnits="userSpaceOnUse">
<stop offset="0.04" stop-color="#99733F"/>
<stop offset="0.21" stop-color="#AF8853"/>
<stop offset="0.54" stop-color="#D6AD76"/>
<stop offset="0.69" stop-color="#D4A970"/>
<stop offset="0.89" stop-color="#CF9F5F"/>
<stop offset="1" stop-color="#CC9954"/>
</linearGradient>
<linearGradient id="paint19_linear_1011_20522" x1="116.956" y1="26.8896" x2="114.684" y2="25.568" gradientUnits="userSpaceOnUse">
<stop offset="0.04" stop-color="#99733F"/>
<stop offset="0.21" stop-color="#AF8853"/>
<stop offset="0.54" stop-color="#D6AD76"/>
<stop offset="0.69" stop-color="#D4A970"/>
<stop offset="0.89" stop-color="#CF9F5F"/>
<stop offset="1" stop-color="#CC9954"/>
</linearGradient>
<linearGradient id="paint20_linear_1011_20522" x1="119.892" y1="26.1216" x2="118.082" y2="24.1488" gradientUnits="userSpaceOnUse">
<stop offset="0.04" stop-color="#99733F"/>
<stop offset="0.21" stop-color="#AF8853"/>
<stop offset="0.54" stop-color="#D6AD76"/>
<stop offset="0.69" stop-color="#D4A970"/>
<stop offset="0.89" stop-color="#CF9F5F"/>
<stop offset="1" stop-color="#CC9954"/>
</linearGradient>
<linearGradient id="paint21_linear_1011_20522" x1="123.304" y1="25.4252" x2="121.168" y2="23.8236" gradientUnits="userSpaceOnUse">
<stop offset="0.04" stop-color="#99733F"/>
<stop offset="0.21" stop-color="#AF8853"/>
<stop offset="0.54" stop-color="#D6AD76"/>
<stop offset="0.69" stop-color="#D4A970"/>
<stop offset="0.89" stop-color="#CF9F5F"/>
<stop offset="1" stop-color="#CC9954"/>
</linearGradient>
<linearGradient id="paint22_linear_1011_20522" x1="126.448" y1="25.2556" x2="124.384" y2="23.5824" gradientUnits="userSpaceOnUse">
<stop offset="0.04" stop-color="#99733F"/>
<stop offset="0.21" stop-color="#AF8853"/>
<stop offset="0.54" stop-color="#D6AD76"/>
<stop offset="0.69" stop-color="#D4A970"/>
<stop offset="0.89" stop-color="#CF9F5F"/>
<stop offset="1" stop-color="#CC9954"/>
</linearGradient>
<linearGradient id="paint23_linear_1011_20522" x1="129.561" y1="25.5811" x2="127.588" y2="23.5889" gradientUnits="userSpaceOnUse">
<stop offset="0.04" stop-color="#99733F"/>
<stop offset="0.21" stop-color="#AF8853"/>
<stop offset="0.54" stop-color="#D6AD76"/>
<stop offset="0.69" stop-color="#D4A970"/>
<stop offset="0.89" stop-color="#CF9F5F"/>
<stop offset="1" stop-color="#CC9954"/>
</linearGradient>
<linearGradient id="paint24_linear_1011_20522" x1="132.698" y1="26.2714" x2="130.823" y2="24.162" gradientUnits="userSpaceOnUse">
<stop offset="0.04" stop-color="#99733F"/>
<stop offset="0.21" stop-color="#AF8853"/>
<stop offset="0.54" stop-color="#D6AD76"/>
<stop offset="0.69" stop-color="#D4A970"/>
<stop offset="0.89" stop-color="#CF9F5F"/>
<stop offset="1" stop-color="#CC9954"/>
</linearGradient>
<linearGradient id="paint25_linear_1011_20522" x1="135.459" y1="27.4497" x2="134.274" y2="24.8715" gradientUnits="userSpaceOnUse">
<stop offset="0.04" stop-color="#99733F"/>
<stop offset="0.21" stop-color="#AF8853"/>
<stop offset="0.54" stop-color="#D6AD76"/>
<stop offset="0.69" stop-color="#D4A970"/>
<stop offset="0.89" stop-color="#CF9F5F"/>
<stop offset="1" stop-color="#CC9954"/>
</linearGradient>
<linearGradient id="paint26_linear_1011_20522" x1="138.252" y1="28.5891" x2="137.301" y2="26.063" gradientUnits="userSpaceOnUse">
<stop offset="0.04" stop-color="#99733F"/>
<stop offset="0.21" stop-color="#AF8853"/>
<stop offset="0.54" stop-color="#D6AD76"/>
<stop offset="0.69" stop-color="#D4A970"/>
<stop offset="0.89" stop-color="#CF9F5F"/>
<stop offset="1" stop-color="#CC9954"/>
</linearGradient>
<linearGradient id="paint27_linear_1011_20522" x1="140.912" y1="30.261" x2="140.318" y2="27.5397" gradientUnits="userSpaceOnUse">
<stop offset="0.04" stop-color="#99733F"/>
<stop offset="0.21" stop-color="#AF8853"/>
<stop offset="0.54" stop-color="#D6AD76"/>
<stop offset="0.69" stop-color="#D4A970"/>
<stop offset="0.89" stop-color="#CF9F5F"/>
<stop offset="1" stop-color="#CC9954"/>
</linearGradient>
<linearGradient id="paint28_linear_1011_20522" x1="143.612" y1="32.4224" x2="142.893" y2="29.1111" gradientUnits="userSpaceOnUse">
<stop offset="0.04" stop-color="#99733F"/>
<stop offset="0.21" stop-color="#AF8853"/>
<stop offset="0.54" stop-color="#D6AD76"/>
<stop offset="0.69" stop-color="#D4A970"/>
<stop offset="0.89" stop-color="#CF9F5F"/>
<stop offset="1" stop-color="#CC9954"/>
</linearGradient>
<linearGradient id="paint29_linear_1011_20522" x1="145.615" y1="34.0515" x2="145.863" y2="31.3561" gradientUnits="userSpaceOnUse">
<stop offset="0.04" stop-color="#99733F"/>
<stop offset="0.21" stop-color="#AF8853"/>
<stop offset="0.54" stop-color="#D6AD76"/>
<stop offset="0.69" stop-color="#D4A970"/>
<stop offset="0.89" stop-color="#CF9F5F"/>
<stop offset="1" stop-color="#CC9954"/>
</linearGradient>
<linearGradient id="paint30_linear_1011_20522" x1="147.673" y1="36.3627" x2="148.278" y2="33.8301" gradientUnits="userSpaceOnUse">
<stop offset="0.04" stop-color="#99733F"/>
<stop offset="0.21" stop-color="#AF8853"/>
<stop offset="0.54" stop-color="#D6AD76"/>
<stop offset="0.69" stop-color="#D4A970"/>
<stop offset="0.89" stop-color="#CF9F5F"/>
<stop offset="1" stop-color="#CC9954"/>
</linearGradient>
<linearGradient id="paint31_linear_1011_20522" x1="149.431" y1="38.7521" x2="150.59" y2="36.4083" gradientUnits="userSpaceOnUse">
<stop offset="0.04" stop-color="#99733F"/>
<stop offset="0.21" stop-color="#AF8853"/>
<stop offset="0.54" stop-color="#D6AD76"/>
<stop offset="0.69" stop-color="#D4A970"/>
<stop offset="0.89" stop-color="#CF9F5F"/>
<stop offset="1" stop-color="#CC9954"/>
</linearGradient>
<linearGradient id="paint32_linear_1011_20522" x1="151.032" y1="41.3171" x2="152.497" y2="39.1816" gradientUnits="userSpaceOnUse">
<stop offset="0.04" stop-color="#99733F"/>
<stop offset="0.21" stop-color="#AF8853"/>
<stop offset="0.54" stop-color="#D6AD76"/>
<stop offset="0.69" stop-color="#D4A970"/>
<stop offset="0.89" stop-color="#CF9F5F"/>
<stop offset="1" stop-color="#CC9954"/>
</linearGradient>
<linearGradient id="paint33_linear_1011_20522" x1="152.556" y1="44.2993" x2="153.643" y2="41.9815" gradientUnits="userSpaceOnUse">
<stop offset="0.04" stop-color="#99733F"/>
<stop offset="0.21" stop-color="#AF8853"/>
<stop offset="0.54" stop-color="#D6AD76"/>
<stop offset="0.69" stop-color="#D4A970"/>
<stop offset="0.89" stop-color="#CF9F5F"/>
<stop offset="1" stop-color="#CC9954"/>
</linearGradient>
<linearGradient id="paint34_linear_1011_20522" x1="153.507" y1="47.3135" x2="154.854" y2="45.0218" gradientUnits="userSpaceOnUse">
<stop offset="0.04" stop-color="#99733F"/>
<stop offset="0.21" stop-color="#AF8853"/>
<stop offset="0.54" stop-color="#D6AD76"/>
<stop offset="0.69" stop-color="#D4A970"/>
<stop offset="0.89" stop-color="#CF9F5F"/>
<stop offset="1" stop-color="#CC9954"/>
</linearGradient>
<linearGradient id="paint35_linear_1011_20522" x1="154.229" y1="50.4776" x2="155.577" y2="48.0687" gradientUnits="userSpaceOnUse">
<stop offset="0.04" stop-color="#99733F"/>
<stop offset="0.21" stop-color="#AF8853"/>
<stop offset="0.54" stop-color="#D6AD76"/>
<stop offset="0.69" stop-color="#D4A970"/>
<stop offset="0.89" stop-color="#CF9F5F"/>
<stop offset="1" stop-color="#CC9954"/>
</linearGradient>
<linearGradient id="paint36_linear_1011_20522" x1="154.509" y1="53.5573" x2="156.02" y2="51.4283" gradientUnits="userSpaceOnUse">
<stop offset="0.04" stop-color="#99733F"/>
<stop offset="0.21" stop-color="#AF8853"/>
<stop offset="0.54" stop-color="#D6AD76"/>
<stop offset="0.69" stop-color="#D4A970"/>
<stop offset="0.89" stop-color="#CF9F5F"/>
<stop offset="1" stop-color="#CC9954"/>
</linearGradient>
<linearGradient id="paint37_linear_1011_20522" x1="154.346" y1="56.8513" x2="156.111" y2="54.6703" gradientUnits="userSpaceOnUse">
<stop offset="0.04" stop-color="#99733F"/>
<stop offset="0.21" stop-color="#AF8853"/>
<stop offset="0.54" stop-color="#D6AD76"/>
<stop offset="0.69" stop-color="#D4A970"/>
<stop offset="0.89" stop-color="#CF9F5F"/>
<stop offset="1" stop-color="#CC9954"/>
</linearGradient>
<linearGradient id="paint38_linear_1011_20522" x1="153.63" y1="59.7163" x2="156.299" y2="58.4858" gradientUnits="userSpaceOnUse">
<stop offset="0.04" stop-color="#99733F"/>
<stop offset="0.21" stop-color="#AF8853"/>
<stop offset="0.54" stop-color="#D6AD76"/>
<stop offset="0.69" stop-color="#D4A970"/>
<stop offset="0.89" stop-color="#CF9F5F"/>
<stop offset="1" stop-color="#CC9954"/>
</linearGradient>
<linearGradient id="paint39_linear_1011_20522" x1="152.731" y1="63.082" x2="155.232" y2="61.8255" gradientUnits="userSpaceOnUse">
<stop offset="0.04" stop-color="#99733F"/>
<stop offset="0.21" stop-color="#AF8853"/>
<stop offset="0.54" stop-color="#D6AD76"/>
<stop offset="0.69" stop-color="#D4A970"/>
<stop offset="0.89" stop-color="#CF9F5F"/>
<stop offset="1" stop-color="#CC9954"/>
</linearGradient>
<linearGradient id="paint40_linear_1011_20522" x1="151.182" y1="66.4026" x2="153.897" y2="65.2893" gradientUnits="userSpaceOnUse">
<stop offset="0.04" stop-color="#99733F"/>
<stop offset="0.21" stop-color="#AF8853"/>
<stop offset="0.54" stop-color="#D6AD76"/>
<stop offset="0.69" stop-color="#D4A970"/>
<stop offset="0.89" stop-color="#CF9F5F"/>
<stop offset="1" stop-color="#CC9954"/>
</linearGradient>
<linearGradient id="paint41_linear_1011_20522" x1="149.073" y1="69.5404" x2="151.97" y2="69.0261" gradientUnits="userSpaceOnUse">
<stop offset="0.04" stop-color="#99733F"/>
<stop offset="0.21" stop-color="#AF8853"/>
<stop offset="0.54" stop-color="#D6AD76"/>
<stop offset="0.69" stop-color="#D4A970"/>
<stop offset="0.89" stop-color="#CF9F5F"/>
<stop offset="1" stop-color="#CC9954"/>
</linearGradient>
<radialGradient id="paint42_radial_1011_20522" cx="0" cy="0" r="1" gradientUnits="userSpaceOnUse" gradientTransform="translate(144.903 93.2717) rotate(17.06) scale(25.1345)">
<stop offset="0.04" stop-color="#F7A3A6"/>
<stop offset="0.38" stop-color="#F04248"/>
<stop offset="0.54" stop-color="#ED1C24"/>
<stop offset="0.62" stop-color="#ED2129"/>
<stop offset="0.73" stop-color="#EE3239"/>
<stop offset="0.86" stop-color="#F04D54"/>
<stop offset="0.99" stop-color="#F37378"/>
<stop offset="1" stop-color="#F4777C"/>
</radialGradient>
<radialGradient id="paint43_radial_1011_20522" cx="0" cy="0" r="1" gradientTransform="matrix(-0.589449 3.93002 0 0 4221.26 -714.191)" gradientUnits="userSpaceOnUse">
<stop offset="0.04" stop-color="#D55D61"/>
<stop offset="0.23" stop-color="#E05A47"/>
<stop offset="0.54" stop-color="#F25821"/>
<stop offset="0.62" stop-color="#F25D24"/>
<stop offset="0.73" stop-color="#F36E2E"/>
<stop offset="0.86" stop-color="#F4893E"/>
<stop offset="0.99" stop-color="#F6AF55"/>
<stop offset="1" stop-color="#F7B257"/>
</radialGradient>
<radialGradient id="paint44_radial_1011_20522" cx="0" cy="0" r="1" gradientUnits="userSpaceOnUse" gradientTransform="translate(141.034 95.3314) rotate(180) scale(30.5999 30.5999)">
<stop offset="0.04" stop-color="#B2151B"/>
<stop offset="0.37" stop-color="#E26D1D"/>
<stop offset="0.54" stop-color="#F7941E"/>
<stop offset="0.62" stop-color="#F7991F"/>
<stop offset="0.73" stop-color="#F7AA23"/>
<stop offset="0.86" stop-color="#F8C529"/>
<stop offset="1" stop-color="#F9ED32"/>
</radialGradient>
<radialGradient id="paint45_radial_1011_20522" cx="0" cy="0" r="1" gradientUnits="userSpaceOnUse" gradientTransform="translate(116.2 97.2944) rotate(167.74) scale(24.8891 24.8891)">
<stop offset="0.04" stop-color="#D58127"/>
<stop offset="0.54" stop-color="#F7941E"/>
<stop offset="0.79" stop-color="#F58E23"/>
<stop offset="1" stop-color="#F3852B"/>
</radialGradient>
<radialGradient id="paint46_radial_1011_20522" cx="0" cy="0" r="1" gradientUnits="userSpaceOnUse" gradientTransform="translate(142.178 94.0248) rotate(155.47) scale(19.7618 19.7618)">
<stop offset="0.04" stop-color="#F9ED32"/>
<stop offset="0.31" stop-color="#F7BA26"/>
<stop offset="0.54" stop-color="#F7941E"/>
<stop offset="0.61" stop-color="#F68E1E"/>
<stop offset="0.7" stop-color="#F57D1F"/>
<stop offset="0.81" stop-color="#F26220"/>
<stop offset="0.92" stop-color="#EF3C22"/>
<stop offset="1" stop-color="#ED1C24"/>
</radialGradient>
<radialGradient id="paint47_radial_1011_20522" cx="0" cy="0" r="1" gradientUnits="userSpaceOnUse" gradientTransform="translate(146.377 94.4837) rotate(131.05) scale(13.7122)">
<stop offset="0.04" stop-color="#FCF484"/>
<stop offset="0.26" stop-color="#FADD63"/>
<stop offset="0.54" stop-color="#F9C33D"/>
<stop offset="0.62" stop-color="#F8BD3F"/>
<stop offset="0.72" stop-color="#F7AC46"/>
<stop offset="0.84" stop-color="#F59151"/>
<stop offset="0.97" stop-color="#F36B61"/>
<stop offset="1" stop-color="#F36066"/>
</radialGradient>
<radialGradient id="paint48_radial_1011_20522" cx="0" cy="0" r="1" gradientUnits="userSpaceOnUse" gradientTransform="translate(142.481 94.133) rotate(106.63) scale(9.78827 9.78826)">
<stop offset="0.04" stop-color="#FEFBD6"/>
<stop offset="0.37" stop-color="#FBF481"/>
<stop offset="0.54" stop-color="#FAF15B"/>
<stop offset="0.63" stop-color="#F9EB60"/>
<stop offset="0.75" stop-color="#F9DA71"/>
<stop offset="0.89" stop-color="#F8BF8C"/>
<stop offset="1" stop-color="#F8A4A7"/>
</radialGradient>
</defs>
</svg>
