<svg width="122" height="103" viewBox="0 0 122 103" fill="none" xmlns="http://www.w3.org/2000/svg">
<mask id="mask0_1016_32757" style="mask-type:luminance" maskUnits="userSpaceOnUse" x="3" y="0" width="116" height="103">
<path d="M118.064 30.0162L102.578 12.6115C102.469 12.4862 102.338 12.3771 102.191 12.2899L82.1046 0.265309C81.8375 0.107233 81.5268 0.0200195 81.2161 0.0200195H40.7488C40.4326 0.0200195 40.1274 0.107233 39.8603 0.265309L19.7684 12.2899C19.6267 12.3771 19.4958 12.4807 19.3868 12.6061L3.81914 30.0162C3.30676 30.5885 3.28495 31.4225 3.76463 32.0221L60.1267 102.257C60.481 102.698 61.1787 102.698 61.533 102.257L118.118 32.0221C118.598 31.4279 118.576 30.5885 118.069 30.0162H118.064Z" fill="white"/>
</mask>
<g mask="url(#mask0_1016_32757)">
</g>
<g clip-path="url(#clip0_1016_32757)">
<path d="M121.369 33.9118L105.471 10.5178C105.177 10.0828 104.757 9.74996 104.267 9.5591L80.114 0.176061C79.8151 0.0606598 79.497 0 79.176 0H43.3186C42.9976 0 42.6795 0.0591803 42.3806 0.176061L18.2291 9.5591C17.7365 9.74996 17.3148 10.0888 17.0189 10.5267L0.442493 35.125C-0.232163 36.1266 -0.125638 37.4626 0.701406 38.3429L59.358 100.929C59.8477 101.451 60.5327 101.749 61.2473 101.749H61.2665C61.99 101.743 62.678 101.435 63.1633 100.901L121.142 37.1105C121.947 36.2243 122.04 34.9031 121.369 33.9118Z" fill="url(#paint0_linear_1016_32757)"/>
<path d="M79.1758 2.59058H61.2472H43.3185L19.167 11.9721L44.2077 24.4414H61.2472H78.2867L103.327 11.9721L79.1758 2.59058Z" fill="url(#paint1_linear_1016_32757)"/>
<path d="M19.167 11.9724L2.59058 36.5722L34.437 51.9709L44.2077 24.4417L19.167 11.9724Z" fill="url(#paint2_linear_1016_32757)"/>
<path d="M78.2867 24.4414L88.8873 51.9706H34.437L44.2077 24.4414H78.2867Z" fill="url(#paint3_linear_1016_32757)"/>
<path d="M103.327 11.9724L119.226 35.3679L88.8874 51.9709L78.2867 24.4417L103.327 11.9724Z" fill="url(#paint4_linear_1016_32757)"/>
<path d="M2.59058 36.572L61.2471 99.1582L34.437 51.9707L2.59058 36.572Z" fill="#2B8703"/>
<path d="M88.8873 51.9707H34.437L61.2472 99.1581L88.8873 51.9707Z" fill="url(#paint5_linear_1016_32757)"/>
<path d="M119.226 35.3677L61.2472 99.1581L88.8874 51.9707L119.226 35.3677Z" fill="#1F6700"/>
<g style="mix-blend-mode:overlay" opacity="0.26">
<path d="M61.2473 99.1581L41.308 64.0657L61.2473 96.5128L79.5769 67.8651L61.2473 99.1581Z" fill="#D9D9D9"/>
</g>
<path style="mix-blend-mode:overlay" opacity="0.37" d="M88.8873 51.9707L48.6625 76.6533L34.437 51.9707H88.8873Z" fill="url(#paint6_linear_1016_32757)"/>
</g>
<defs>
<linearGradient id="paint0_linear_1016_32757" x1="60.9085" y1="85.0184" x2="60.9085" y2="2.52552" gradientUnits="userSpaceOnUse">
<stop stop-color="#0A1D02"/>
<stop offset="1" stop-color="#368603"/>
</linearGradient>
<linearGradient id="paint1_linear_1016_32757" x1="24.8188" y1="33.4992" x2="101.661" y2="-6.15322" gradientUnits="userSpaceOnUse">
<stop stop-color="#9EFC7C"/>
<stop offset="1" stop-color="#3DCD00"/>
</linearGradient>
<linearGradient id="paint2_linear_1016_32757" x1="2.59058" y1="31.9724" x2="44.2077" y2="31.9724" gradientUnits="userSpaceOnUse">
<stop stop-color="#2F9D00"/>
<stop offset="1" stop-color="#8EFA21"/>
</linearGradient>
<linearGradient id="paint3_linear_1016_32757" x1="61.6614" y1="54.8305" x2="61.6622" y2="24.4414" gradientUnits="userSpaceOnUse">
<stop stop-color="#72FB37"/>
<stop offset="1" stop-color="#9FFFBB"/>
</linearGradient>
<linearGradient id="paint4_linear_1016_32757" x1="78.2867" y1="31.9724" x2="119.226" y2="31.9724" gradientUnits="userSpaceOnUse">
<stop stop-color="#32A600"/>
<stop offset="1" stop-color="#64F915"/>
</linearGradient>
<linearGradient id="paint5_linear_1016_32757" x1="61.6614" y1="39.0073" x2="61.6614" y2="84.3601" gradientUnits="userSpaceOnUse">
<stop stop-color="#419900"/>
<stop offset="1" stop-color="#4AE309"/>
</linearGradient>
<linearGradient id="paint6_linear_1016_32757" x1="50.2692" y1="72.8273" x2="66.0541" y2="43.9296" gradientUnits="userSpaceOnUse">
<stop stop-color="#D9D9D9"/>
<stop offset="1" stop-color="#D9D9D9"/>
</linearGradient>
<clipPath id="clip0_1016_32757">
<rect width="121.817" height="101.749" fill="white"/>
</clipPath>
</defs>
</svg>
